<svg width="25" height="27" viewBox="0 0 25 27" fill="none" xmlns="http://www.w3.org/2000/svg">
<g opacity="0.95">
<mask id="path-1-inside-1_1291_18856" fill="white">
<path fill-rule="evenodd" clip-rule="evenodd" d="M24.8844 0H0V20.2966H0.309237L12.5274 27L24.7457 20.2966H24.8844V20.2204L25.0002 20.1569H24.8844V0Z"/>
</mask>
<path fill-rule="evenodd" clip-rule="evenodd" d="M24.8844 0H0V20.2966H0.309237L12.5274 27L24.7457 20.2966H24.8844V20.2204L25.0002 20.1569H24.8844V0Z" fill="white"/>
<path d="M0 0V-2H-2V0H0ZM24.8844 0H26.8844V-2H24.8844V0ZM0 20.2966H-2V22.2966H0V20.2966ZM0.309237 20.2966L1.27125 18.5431L0.82184 18.2966H0.309237V20.2966ZM12.5274 27L11.5654 28.7534L12.5274 29.2812L13.4895 28.7534L12.5274 27ZM24.7457 20.2966V18.2966H24.2331L23.7836 18.5431L24.7457 20.2966ZM24.8844 20.2966V22.2966H26.8844V20.2966H24.8844ZM24.8844 20.2204L23.9224 18.467L22.8844 19.0365V20.2204H24.8844ZM25.0002 20.1569L25.9622 21.9103L25.0002 18.1569V20.1569ZM24.8844 20.1569H22.8844V22.1569H24.8844V20.1569ZM0 2H24.8844V-2H0V2ZM2 20.2966V0H-2V20.2966H2ZM0.309237 18.2966H0V22.2966H0.309237V18.2966ZM13.4895 25.2466L1.27125 18.5431L-0.652775 22.05L11.5654 28.7534L13.4895 25.2466ZM23.7836 18.5431L11.5654 25.2466L13.4895 28.7534L25.7077 22.05L23.7836 18.5431ZM24.8844 18.2966H24.7457V22.2966H24.8844V18.2966ZM22.8844 20.2204V20.2966H26.8844V20.2204H22.8844ZM24.0382 18.4035L23.9224 18.467L25.8465 21.9738L25.9622 21.9103L24.0382 18.4035ZM24.8844 22.1569H25.0002V18.1569H24.8844V22.1569ZM22.8844 0V20.1569H26.8844V0H22.8844Z" fill="#4577EF" mask="url(#path-1-inside-1_1291_18856)"/>
</g>
</svg>
