<svg width="26" height="32" viewBox="0 0 26 32" fill="none" xmlns="http://www.w3.org/2000/svg">
<g opacity="0.95">
<mask id="path-1-outside-1_1291_18859" maskUnits="userSpaceOnUse" x="0.685547" y="4.87061" width="25" height="27" fill="black">
<rect fill="white" x="0.685547" y="4.87061" width="25" height="27"/>
<path fill-rule="evenodd" clip-rule="evenodd" d="M23.5885 6.87061H2.68555V23.4085H2.94541L13.2087 28.8706L23.472 23.4085H23.5885V23.3465L23.6858 23.2947H23.5885V6.87061Z"/>
</mask>
<path fill-rule="evenodd" clip-rule="evenodd" d="M23.5885 6.87061H2.68555V23.4085H2.94541L13.2087 28.8706L23.472 23.4085H23.5885V23.3465L23.6858 23.2947H23.5885V6.87061Z" fill="white"/>
<path d="M2.68555 6.87061V4.87061H0.685547V6.87061H2.68555ZM23.5885 6.87061H25.5885V4.87061H23.5885V6.87061ZM2.68555 23.4085H0.685547V25.4085H2.68555V23.4085ZM2.94541 23.4085L3.88502 21.643L3.44447 21.4085H2.94541V23.4085ZM13.2087 28.8706L12.2691 30.6361L13.2087 31.1362L14.1483 30.6361L13.2087 28.8706ZM23.472 23.4085V21.4085H22.9729L22.5324 21.643L23.472 23.4085ZM23.5885 23.4085V25.4085H25.5885V23.4085H23.5885ZM23.5885 23.3465L22.6489 21.581L21.5885 22.1454V23.3465H23.5885ZM23.6858 23.2947L24.6254 25.0603L23.6858 21.2947V23.2947ZM23.5885 23.2947H21.5885V25.2947H23.5885V23.2947ZM2.68555 8.87061H23.5885V4.87061H2.68555V8.87061ZM4.68555 23.4085V6.87061H0.685547V23.4085H4.68555ZM2.94541 21.4085H2.68555V25.4085H2.94541V21.4085ZM14.1483 27.1051L3.88502 21.643L2.0058 25.1741L12.2691 30.6361L14.1483 27.1051ZM22.5324 21.643L12.2691 27.1051L14.1483 30.6361L24.4116 25.1741L22.5324 21.643ZM23.5885 21.4085H23.472V25.4085H23.5885V21.4085ZM21.5885 23.3465V23.4085H25.5885V23.3465H21.5885ZM22.7462 21.5292L22.6489 21.581L24.5281 25.1121L24.6254 25.0603L22.7462 21.5292ZM23.5885 25.2947H23.6858V21.2947H23.5885V25.2947ZM21.5885 6.87061V23.2947H25.5885V6.87061H21.5885Z" fill="#4577EF" mask="url(#path-1-outside-1_1291_18859)"/>
<path fill-rule="evenodd" clip-rule="evenodd" d="M7.35636 22.3168L13.1861 25.5779L19.0159 22.3168H21.3155L13.1861 26.8643L5.05672 22.3168H7.35636Z" fill="#4577EF"/>
<line x1="21.3154" y1="14.9492" x2="5.05664" y2="14.9492" stroke="#4577EF"/>
</g>
</svg>
