<svg width="25" height="32" viewBox="0 0 25 32" fill="none" xmlns="http://www.w3.org/2000/svg">
<g opacity="0.95">
<mask id="path-1-outside-1_1644_6228" maskUnits="userSpaceOnUse" x="0" y="5.57397" width="25" height="27" fill="black">
<rect fill="white" y="5.57397" width="25" height="27"/>
<path fill-rule="evenodd" clip-rule="evenodd" d="M22.9029 7.57397H2V24.1119H2.25986L12.5232 29.574L22.7865 24.1119H22.9029V24.0499L23.0003 23.9981H22.9029V7.57397Z"/>
</mask>
<path fill-rule="evenodd" clip-rule="evenodd" d="M22.9029 7.57397H2V24.1119H2.25986L12.5232 29.574L22.7865 24.1119H22.9029V24.0499L23.0003 23.9981H22.9029V7.57397Z" fill="white"/>
<path d="M2 7.57397V5.57397H0V7.57397H2ZM22.9029 7.57397H24.9029V5.57397H22.9029V7.57397ZM2 24.1119H0V26.1119H2V24.1119ZM2.25986 24.1119L3.19947 22.3464L2.75892 22.1119H2.25986V24.1119ZM12.5232 29.574L11.5836 31.3395L12.5232 31.8396L13.4628 31.3395L12.5232 29.574ZM22.7865 24.1119V22.1119H22.2874L21.8468 22.3464L22.7865 24.1119ZM22.9029 24.1119V26.1119H24.9029V24.1119H22.9029ZM22.9029 24.0499L21.9633 22.2844L20.9029 22.8487V24.0499H22.9029ZM23.0003 23.9981L23.9399 25.7636L23.0003 21.9981V23.9981ZM22.9029 23.9981H20.9029V25.9981H22.9029V23.9981ZM2 9.57397H22.9029V5.57397H2V9.57397ZM4 24.1119V7.57397H0V24.1119H4ZM2.25986 22.1119H2V26.1119H2.25986V22.1119ZM13.4628 27.8084L3.19947 22.3464L1.32025 25.8774L11.5836 31.3395L13.4628 27.8084ZM21.8468 22.3464L11.5836 27.8084L13.4628 31.3395L23.7261 25.8774L21.8468 22.3464ZM22.9029 22.1119H22.7865V26.1119H22.9029V22.1119ZM20.9029 24.0499V24.1119H24.9029V24.0499H20.9029ZM22.0607 22.2326L21.9633 22.2844L23.8426 25.8155L23.9399 25.7636L22.0607 22.2326ZM22.9029 25.9981H23.0003V21.9981H22.9029V25.9981ZM20.9029 7.57397V23.9981H24.9029V7.57397H20.9029Z" fill="#4577EF" mask="url(#path-1-outside-1_1644_6228)"/>
<path fill-rule="evenodd" clip-rule="evenodd" d="M6.67073 23.0205L12.5005 26.2816L18.3302 23.0205H20.6299L12.5005 27.568L4.37109 23.0205H6.67073Z" fill="#4577EF"/>
<line x1="20.6299" y1="14.3101" x2="4.37109" y2="14.3101" stroke="#4577EF"/>
<line x1="20.6299" y1="16.9949" x2="4.37109" y2="16.9949" stroke="#4577EF"/>
</g>
</svg>
