<svg width="26" height="33" viewBox="0 0 26 33" fill="none" xmlns="http://www.w3.org/2000/svg">
<g opacity="0.95">
<mask id="path-1-outside-1_1646_6248" maskUnits="userSpaceOnUse" x="0.314453" y="5.76025" width="25" height="27" fill="black">
<rect fill="white" x="0.314453" y="5.76025" width="25" height="27"/>
<path fill-rule="evenodd" clip-rule="evenodd" d="M23.2174 7.76025H2.31445V24.2982H2.57432L12.8376 29.7603L23.1009 24.2982H23.2174V24.2362L23.3147 24.1844H23.2174V7.76025Z"/>
</mask>
<path fill-rule="evenodd" clip-rule="evenodd" d="M23.2174 7.76025H2.31445V24.2982H2.57432L12.8376 29.7603L23.1009 24.2982H23.2174V24.2362L23.3147 24.1844H23.2174V7.76025Z" fill="white"/>
<path d="M2.31445 7.76025V5.76025H0.314453V7.76025H2.31445ZM23.2174 7.76025H25.2174V5.76025H23.2174V7.76025ZM2.31445 24.2982H0.314453V26.2982H2.31445V24.2982ZM2.57432 24.2982L3.51393 22.5326L3.07337 22.2982H2.57432V24.2982ZM12.8376 29.7603L11.898 31.5258L12.8376 32.0259L13.7772 31.5258L12.8376 29.7603ZM23.1009 24.2982V22.2982H22.6019L22.1613 22.5326L23.1009 24.2982ZM23.2174 24.2982V26.2982H25.2174V24.2982H23.2174ZM23.2174 24.2362L22.2778 22.4707L21.2174 23.035V24.2362H23.2174ZM23.3147 24.1844L24.2544 25.9499L23.3147 22.1844V24.1844ZM23.2174 24.1844H21.2174V26.1844H23.2174V24.1844ZM2.31445 9.76025H23.2174V5.76025H2.31445V9.76025ZM4.31445 24.2982V7.76025H0.314453V24.2982H4.31445ZM2.57432 22.2982H2.31445V26.2982H2.57432V22.2982ZM13.7772 27.9947L3.51393 22.5326L1.63471 26.0637L11.898 31.5258L13.7772 27.9947ZM22.1613 22.5326L11.898 27.9947L13.7772 31.5258L24.0405 26.0637L22.1613 22.5326ZM23.2174 22.2982H23.1009V26.2982H23.2174V22.2982ZM21.2174 24.2362V24.2982H25.2174V24.2362H21.2174ZM22.3751 22.4189L22.2778 22.4707L24.157 26.0017L24.2544 25.9499L22.3751 22.4189ZM23.2174 26.1844H23.3147V22.1844H23.2174V26.1844ZM21.2174 7.76025V24.1844H25.2174V7.76025H21.2174Z" fill="#4577EF" mask="url(#path-1-outside-1_1646_6248)"/>
<path fill-rule="evenodd" clip-rule="evenodd" d="M6.98518 23.2065L12.8149 26.4676L18.6447 23.2065H20.9443L12.8149 27.754L4.68555 23.2065H6.98518Z" fill="#4577EF"/>
<line x1="20.9443" y1="12.8389" x2="4.68555" y2="12.8389" stroke="#4577EF"/>
<line x1="20.9443" y1="15.8389" x2="4.68555" y2="15.8389" stroke="#4577EF"/>
<line x1="20.9443" y1="18.8389" x2="4.68555" y2="18.8389" stroke="#4577EF"/>
</g>
</svg>
