<svg width="26" height="32" viewBox="0 0 26 32" fill="none" xmlns="http://www.w3.org/2000/svg">
<g opacity="0.95">
<mask id="path-1-outside-1_1649_6270" maskUnits="userSpaceOnUse" x="0.369141" y="4.87061" width="25" height="27" fill="black">
<rect fill="white" x="0.369141" y="4.87061" width="25" height="27"/>
<path fill-rule="evenodd" clip-rule="evenodd" d="M23.2721 6.87061H2.36914V23.4085H2.629L12.8923 28.8706L23.1556 23.4085H23.2721V23.3465L23.3694 23.2947H23.2721V6.87061Z"/>
</mask>
<path fill-rule="evenodd" clip-rule="evenodd" d="M23.2721 6.87061H2.36914V23.4085H2.629L12.8923 28.8706L23.1556 23.4085H23.2721V23.3465L23.3694 23.2947H23.2721V6.87061Z" fill="white"/>
<path d="M2.36914 6.87061V4.87061H0.369141V6.87061H2.36914ZM23.2721 6.87061H25.2721V4.87061H23.2721V6.87061ZM2.36914 23.4085H0.369141V25.4085H2.36914V23.4085ZM2.629 23.4085L3.56861 21.643L3.12806 21.4085H2.629V23.4085ZM12.8923 28.8706L11.9527 30.6361L12.8923 31.1362L13.8319 30.6361L12.8923 28.8706ZM23.1556 23.4085V21.4085H22.6565L22.216 21.643L23.1556 23.4085ZM23.2721 23.4085V25.4085H25.2721V23.4085H23.2721ZM23.2721 23.3465L22.3325 21.581L21.2721 22.1454V23.3465H23.2721ZM23.3694 23.2947L24.309 25.0603L23.3694 21.2947V23.2947ZM23.2721 23.2947H21.2721V25.2947H23.2721V23.2947ZM2.36914 8.87061H23.2721V4.87061H2.36914V8.87061ZM4.36914 23.4085V6.87061H0.369141V23.4085H4.36914ZM2.629 21.4085H2.36914V25.4085H2.629V21.4085ZM13.8319 27.1051L3.56861 21.643L1.68939 25.1741L11.9527 30.6361L13.8319 27.1051ZM22.216 21.643L11.9527 27.1051L13.8319 30.6361L24.0952 25.1741L22.216 21.643ZM23.2721 21.4085H23.1556V25.4085H23.2721V21.4085ZM21.2721 23.3465V23.4085H25.2721V23.3465H21.2721ZM22.4298 21.5292L22.3325 21.581L24.2117 25.1121L24.309 25.0603L22.4298 21.5292ZM23.2721 25.2947H23.3694V21.2947H23.2721V25.2947ZM21.2721 6.87061V23.2947H25.2721V6.87061H21.2721Z" fill="#4577EF" mask="url(#path-1-outside-1_1649_6270)"/>
<path fill-rule="evenodd" clip-rule="evenodd" d="M7.03987 22.3169L12.8696 25.578L18.6994 22.3169H20.999L12.8696 26.8643L4.74023 22.3169H7.03987Z" fill="#4577EF"/>
<g clip-path="url(#clip0_1649_6270)">
<path d="M15.5772 14.2276L13.8416 13.9754L13.0657 12.4024C13.0445 12.3594 13.0096 12.3245 12.9666 12.3033C12.8585 12.25 12.7273 12.2944 12.6733 12.4024L11.8974 13.9754L10.1618 14.2276C10.1139 14.2345 10.0702 14.257 10.0367 14.2912C9.99617 14.3328 9.97386 14.3888 9.97463 14.4469C9.9754 14.505 9.99919 14.5603 10.0408 14.6009L11.2965 15.8252L10.9999 17.554C10.9929 17.5942 10.9973 17.6356 11.0127 17.6734C11.0281 17.7112 11.0537 17.744 11.0867 17.768C11.1197 17.7919 11.1588 17.8062 11.1995 17.8091C11.2402 17.812 11.2809 17.8034 11.317 17.7844L12.8695 16.9682L14.4219 17.7844C14.4643 17.8069 14.5135 17.8145 14.5607 17.8063C14.6796 17.7857 14.7596 17.673 14.7391 17.554L14.4424 15.8252L15.6982 14.6009C15.7324 14.5674 15.7549 14.5236 15.7618 14.4758C15.7802 14.3562 15.6968 14.2454 15.5772 14.2276Z" fill="#4577EF"/>
</g>
</g>
<defs>
<clipPath id="clip0_1649_6270">
<rect width="7" height="7" fill="white" transform="translate(9.36914 11.814)"/>
</clipPath>
</defs>
</svg>
