<svg width="26" height="32" viewBox="0 0 26 32" fill="none" xmlns="http://www.w3.org/2000/svg">
<g opacity="0.95">
<mask id="path-1-outside-1_1655_6299" maskUnits="userSpaceOnUse" x="0.683594" y="4.87061" width="25" height="27" fill="black">
<rect fill="white" x="0.683594" y="4.87061" width="25" height="27"/>
<path fill-rule="evenodd" clip-rule="evenodd" d="M23.5865 6.87061H2.68359V23.4085H2.94346L13.2068 28.8706L23.4701 23.4085H23.5865V23.3465L23.6839 23.2947H23.5865V6.87061Z"/>
</mask>
<path fill-rule="evenodd" clip-rule="evenodd" d="M23.5865 6.87061H2.68359V23.4085H2.94346L13.2068 28.8706L23.4701 23.4085H23.5865V23.3465L23.6839 23.2947H23.5865V6.87061Z" fill="white"/>
<path d="M2.68359 6.87061V4.87061H0.683594V6.87061H2.68359ZM23.5865 6.87061H25.5865V4.87061H23.5865V6.87061ZM2.68359 23.4085H0.683594V25.4085H2.68359V23.4085ZM2.94346 23.4085L3.88307 21.643L3.44251 21.4085H2.94346V23.4085ZM13.2068 28.8706L12.2671 30.6361L13.2068 31.1362L14.1464 30.6361L13.2068 28.8706ZM23.4701 23.4085V21.4085H22.971L22.5304 21.643L23.4701 23.4085ZM23.5865 23.4085V25.4085H25.5865V23.4085H23.5865ZM23.5865 23.3465L22.6469 21.581L21.5865 22.1454V23.3465H23.5865ZM23.6839 23.2947L24.6235 25.0603L23.6839 21.2947V23.2947ZM23.5865 23.2947H21.5865V25.2947H23.5865V23.2947ZM2.68359 8.87061H23.5865V4.87061H2.68359V8.87061ZM4.68359 23.4085V6.87061H0.683594V23.4085H4.68359ZM2.94346 21.4085H2.68359V25.4085H2.94346V21.4085ZM14.1464 27.1051L3.88307 21.643L2.00385 25.1741L12.2671 30.6361L14.1464 27.1051ZM22.5304 21.643L12.2671 27.1051L14.1464 30.6361L24.4097 25.1741L22.5304 21.643ZM23.5865 21.4085H23.4701V25.4085H23.5865V21.4085ZM21.5865 23.3465V23.4085H25.5865V23.3465H21.5865ZM22.7442 21.5292L22.6469 21.581L24.5262 25.1121L24.6235 25.0603L22.7442 21.5292ZM23.5865 25.2947H23.6839V21.2947H23.5865V25.2947ZM21.5865 6.87061V23.2947H25.5865V6.87061H21.5865Z" fill="#4577EF" mask="url(#path-1-outside-1_1655_6299)"/>
<path fill-rule="evenodd" clip-rule="evenodd" d="M7.35433 22.3169L13.1841 25.578L19.0138 22.3169H21.3135L13.1841 26.8643L5.05469 22.3169H7.35433Z" fill="#4577EF"/>
<g clip-path="url(#clip0_1655_6299)">
<path d="M12.3916 14.2552L10.656 14.003L9.88013 12.43C9.85893 12.387 9.82407 12.3521 9.781 12.3309C9.673 12.2776 9.54175 12.322 9.48774 12.43L8.71186 14.003L6.97622 14.2552C6.92837 14.2621 6.88462 14.2846 6.85112 14.3188C6.81063 14.3604 6.78831 14.4164 6.78908 14.4745C6.78985 14.5325 6.81364 14.5879 6.85522 14.6285L8.11099 15.8528L7.81431 17.5816C7.80735 17.6218 7.8118 17.6632 7.82715 17.701C7.8425 17.7388 7.86815 17.7716 7.90117 17.7955C7.93419 17.8195 7.97327 17.8338 8.01398 17.8367C8.05469 17.8396 8.0954 17.831 8.13149 17.812L9.68393 16.9958L11.2364 17.812C11.2788 17.8345 11.328 17.842 11.3751 17.8338C11.4941 17.8133 11.5741 17.7005 11.5536 17.5816L11.2569 15.8528L12.5126 14.6285C12.5468 14.595 12.5694 14.5512 12.5762 14.5034C12.5947 14.3837 12.5113 14.273 12.3916 14.2552Z" fill="#4577EF"/>
</g>
<g clip-path="url(#clip1_1655_6299)">
<path d="M19.3916 14.2552L17.656 14.003L16.8801 12.43C16.8589 12.387 16.8241 12.3521 16.781 12.3309C16.673 12.2776 16.5417 12.322 16.4877 12.43L15.7119 14.003L13.9762 14.2552C13.9284 14.2621 13.8846 14.2846 13.8511 14.3188C13.8106 14.3604 13.7883 14.4164 13.7891 14.4745C13.7899 14.5325 13.8136 14.5879 13.8552 14.6285L15.111 15.8528L14.8143 17.5816C14.8073 17.6218 14.8118 17.6632 14.8272 17.701C14.8425 17.7388 14.8681 17.7716 14.9012 17.7955C14.9342 17.8195 14.9733 17.8338 15.014 17.8367C15.0547 17.8396 15.0954 17.831 15.1315 17.812L16.6839 16.9958L18.2364 17.812C18.2788 17.8345 18.328 17.842 18.3751 17.8338C18.4941 17.8133 18.5741 17.7005 18.5536 17.5816L18.2569 15.8528L19.5126 14.6285C19.5468 14.595 19.5694 14.5512 19.5762 14.5034C19.5947 14.3837 19.5113 14.273 19.3916 14.2552Z" fill="#4577EF"/>
</g>
</g>
<defs>
<clipPath id="clip0_1655_6299">
<rect width="7" height="7" fill="white" transform="translate(6.18359 11.8416)"/>
</clipPath>
<clipPath id="clip1_1655_6299">
<rect width="7" height="7" fill="white" transform="translate(13.1836 11.8416)"/>
</clipPath>
</defs>
</svg>
