<?xml version="1.0" encoding="utf-8"?>
<!-- Generator: Adobe Illustrator 25.2.3, SVG Export Plug-In . SVG Version: 6.00 Build 0)  -->
<svg version="1.1" id="Слой_1" xmlns="http://www.w3.org/2000/svg" xmlns:xlink="http://www.w3.org/1999/xlink" x="0px" y="0px"
	 viewBox="0 0 20 23" style="enable-background:new 0 0 20 23;" xml:space="preserve">
<style type="text/css">
	.st0{fill:#4577EF;}
</style>
<path class="st0" d="M15.9,12.3c0-0.9,0.2-1.7,0.7-2.5C17,9.1,17.6,8.4,18.4,8c-0.5-0.7-1.1-1.2-1.9-1.6c-0.7-0.4-1.6-0.6-2.4-0.6
	c-1.8-0.2-3.5,1.1-4.5,1.1c-0.9,0-2.3-1-3.8-1c-1,0-1.9,0.3-2.8,0.8c-0.8,0.5-1.5,1.2-2,2c-2.1,3.5-0.5,8.7,1.5,11.5
	c1,1.4,2.2,2.9,3.7,2.9c1.5-0.1,2-0.9,3.8-0.9c1.8,0,2.3,0.9,3.8,0.9c1.5,0,2.6-1.4,3.6-2.8c0.7-1,1.3-2.1,1.6-3.2
	c-0.9-0.4-1.7-1-2.3-1.8S15.9,13.3,15.9,12.3"/>
<path class="st0" d="M12.9,3.8c0.9-1,1.3-2.3,1.2-3.7c-1.3,0.1-2.6,0.8-3.4,1.7c-0.9,1-1.3,2.2-1.2,3.5c0.7,0,1.3-0.1,1.9-0.4
	C12,4.7,12.5,4.3,12.9,3.8"/>
</svg>
