<svg width="16" height="16" viewBox="0 0 16 16" fill="none" xmlns="http://www.w3.org/2000/svg">
<path d="M10.6673 5.33398H5.33398V10.6673H10.6673V5.33398Z" stroke="#151924" stroke-linecap="round" stroke-linejoin="round"/>
<path d="M3.33398 14.666C4.43398 14.666 5.33398 13.766 5.33398 12.666V10.666H3.33398C2.23398 10.666 1.33398 11.566 1.33398 12.666C1.33398 13.766 2.23398 14.666 3.33398 14.666Z" stroke="#151924" stroke-linecap="round" stroke-linejoin="round"/>
<path d="M3.33398 5.33398H5.33398V3.33398C5.33398 2.23398 4.43398 1.33398 3.33398 1.33398C2.23398 1.33398 1.33398 2.23398 1.33398 3.33398C1.33398 4.43398 2.23398 5.33398 3.33398 5.33398Z" stroke="#151924" stroke-linecap="round" stroke-linejoin="round"/>
<path d="M10.666 5.33398H12.666C13.766 5.33398 14.666 4.43398 14.666 3.33398C14.666 2.23398 13.766 1.33398 12.666 1.33398C11.566 1.33398 10.666 2.23398 10.666 3.33398V5.33398Z" stroke="#151924" stroke-linecap="round" stroke-linejoin="round"/>
<path d="M12.666 14.666C13.766 14.666 14.666 13.766 14.666 12.666C14.666 11.566 13.766 10.666 12.666 10.666H10.666V12.666C10.666 13.766 11.566 14.666 12.666 14.666Z" stroke="#151924" stroke-linecap="round" stroke-linejoin="round"/>
</svg>
