<svg width="70" height="84" viewBox="0 0 70 84" fill="none" xmlns="http://www.w3.org/2000/svg">
<path fill-rule="evenodd" clip-rule="evenodd" d="M33.0548 9.39769C33.8682 6.75714 36.3259 4.84375 39.2231 4.84375H44.8589C47.7561 4.84375 50.2138 6.75714 51.0272 9.39769C51.2122 9.99817 51.3125 10.6381 51.3125 11.3053C51.3125 11.7602 50.9446 12.1258 50.4946 12.1258H33.5874C33.1375 12.1258 32.7695 11.7602 32.7695 11.3053C32.7695 10.6382 32.8699 9.99817 33.0548 9.39769ZM39.2231 0.84375C35.0219 0.84375 31.4045 3.32253 29.7425 6.89344C28.7451 6.95993 27.7499 7.03446 26.7569 7.11695C21.4172 7.56055 17.498 12.0989 17.498 17.3533V23.4079H6.81763C3.37689 23.4079 0.59082 26.1992 0.59082 29.6386V71.9464C0.59082 75.3857 3.37689 78.1771 6.81763 78.1771H38.2243C37.3848 76.9413 36.689 75.5999 36.1609 74.1771H6.81763C5.58956 74.1771 4.59082 73.1801 4.59082 71.9464V29.6386C4.59082 28.4048 5.58956 27.4079 6.81763 27.4079H19.498H43.45C44.678 27.4079 45.6768 28.4048 45.6768 29.6386V50.7125C46.9386 50.1097 48.2783 49.6437 49.6768 49.3338V29.6386C49.6768 26.1992 46.8907 23.4079 43.45 23.4079H21.498V17.3533C21.498 14.0711 23.9284 11.3657 27.0881 11.1032C27.6496 11.0566 28.2118 11.0125 28.7748 10.9711C28.7713 11.0821 28.7695 11.1935 28.7695 11.3053C28.7695 13.9658 30.9248 16.1258 33.5874 16.1258H50.4946C53.1572 16.1258 55.3125 13.9658 55.3125 11.3053C55.3125 11.1935 55.3107 11.0821 55.3073 10.9711C55.8702 11.0125 56.4324 11.0566 56.9939 11.1032C60.1536 11.3657 62.584 14.0711 62.584 17.3533V51.0936C64.0432 51.8735 65.3872 52.8407 66.584 53.9631V17.3533C66.584 12.0988 62.6648 7.56055 57.3251 7.11695C56.3321 7.03446 55.3369 6.95993 54.3396 6.89344C52.6775 3.32253 49.0602 0.84375 44.8589 0.84375H39.2231ZM36.5826 60.0823C36.5242 60.0772 36.465 60.0746 36.4053 60.0746H22.3159C21.2113 60.0746 20.3159 60.97 20.3159 62.0746C20.3159 63.1791 21.2113 64.0746 22.3159 64.0746H35.3341C35.6026 62.6829 36.0249 61.346 36.5826 60.0823ZM13.8623 37.5104C12.7577 37.5104 11.8623 38.4059 11.8623 39.5104V39.5386C11.8623 40.6432 12.7577 41.5386 13.8623 41.5386H13.8905C14.9951 41.5386 15.8905 40.6432 15.8905 39.5386V39.5104C15.8905 38.4059 14.9951 37.5104 13.8905 37.5104H13.8623ZM22.3159 37.5104C21.2113 37.5104 20.3159 38.4059 20.3159 39.5104C20.3159 40.615 21.2113 41.5104 22.3159 41.5104H36.4053C37.5098 41.5104 38.4053 40.615 38.4053 39.5104C38.4053 38.4059 37.5098 37.5104 36.4053 37.5104H22.3159ZM13.8623 48.7925C12.7577 48.7925 11.8623 49.6879 11.8623 50.7925V50.8207C11.8623 51.9253 12.7577 52.8207 13.8623 52.8207H13.8905C14.9951 52.8207 15.8905 51.9253 15.8905 50.8207V50.7925C15.8905 49.6879 14.9951 48.7925 13.8905 48.7925H13.8623ZM22.3159 48.7925C21.2113 48.7925 20.3159 49.6879 20.3159 50.7925C20.3159 51.8971 21.2113 52.7925 22.3159 52.7925H36.4053C37.5098 52.7925 38.4053 51.8971 38.4053 50.7925C38.4053 49.6879 37.5098 48.7925 36.4053 48.7925H22.3159ZM13.8623 60.0746C12.7577 60.0746 11.8623 60.97 11.8623 62.0746V62.1028C11.8623 63.2073 12.7577 64.1028 13.8623 64.1028H13.8905C14.9951 64.1028 15.8905 63.2073 15.8905 62.1028V62.0746C15.8905 60.97 14.9951 60.0746 13.8905 60.0746H13.8623Z" fill="#A2A2A2"/>
<path d="M61.8938 76.6418C66.3893 72.1462 66.3893 64.8575 61.8938 60.3619C57.3982 55.8663 50.1094 55.8663 45.6139 60.3619M61.8938 76.6418C57.3982 81.1374 50.1094 81.1374 45.6139 76.6418C41.1183 72.1462 41.1183 64.8575 45.6139 60.3619M61.8938 76.6418L45.6139 60.3619" stroke="#A2A2A2" stroke-width="3" stroke-linecap="round" stroke-linejoin="round"/>
</svg>
