<svg width="64" height="64" viewBox="0 0 64 64" fill="none" xmlns="http://www.w3.org/2000/svg">
<path d="M33.3749 22V8.5H14.4999V55.5H49.4999V24.625H35.9999C35.3037 24.625 34.6361 24.3484 34.1438 23.8562C33.6515 23.3639 33.3749 22.6962 33.3749 22ZM31.9999 48.5C30.8937 48.5 29.9999 47.6063 29.9999 46.5C29.9999 45.3938 30.8937 44.5 31.9999 44.5C33.1062 44.5 33.9999 45.3938 33.9999 46.5C33.9999 47.6063 33.1062 48.5 31.9999 48.5ZM38.8749 34.225C38.9187 37.0313 37.0187 39.5063 34.2312 40.4063C33.8749 40.5188 33.6249 40.8625 33.6249 41.2375V42C33.6249 42.3438 33.3437 42.625 32.9999 42.625H30.9999C30.6562 42.625 30.3749 42.3438 30.3749 42V40C30.3874 38.7625 31.3374 37.6688 32.5437 37.4938C34.3124 37.2625 35.6249 35.8938 35.6249 34.3125C35.6249 32.5563 34.0124 31.0938 31.9999 31.0938C29.9874 31.0938 28.3749 32.5563 28.3749 34.3188C28.3749 34.6438 28.0999 34.9063 27.7624 34.9063H25.7374C25.3999 34.9063 25.1249 34.65 25.1249 34.3125C25.1249 30.725 28.2562 27.8313 32.0937 27.875C35.7999 27.925 38.8249 30.7563 38.8749 34.225Z" fill="#E6F7FF"/>
<path d="M53.4124 18.0439L39.9624 4.58762C39.5874 4.21262 39.0749 4.00012 38.5437 4.00012H11.9999C10.8937 4.00012 9.99994 4.89387 9.99994 6.00012V58.0001C9.99994 59.1064 10.8937 60.0001 11.9999 60.0001H51.9999C53.1062 60.0001 53.9999 59.1064 53.9999 58.0001V19.4564C53.9999 18.9251 53.7874 18.4189 53.4124 18.0439ZM37.6249 8.61262L49.3874 20.3751H37.6249V8.61262ZM49.4999 55.5001H14.4999V8.50012H33.3749V22.0001C33.3749 22.6963 33.6515 23.364 34.1438 23.8563C34.6361 24.3486 35.3037 24.6251 35.9999 24.6251H49.4999V55.5001Z" fill="#1890FF"/>
<path d="M29.9999 46.5001C29.9999 47.0305 30.2107 47.5393 30.5857 47.9143C30.9608 48.2894 31.4695 48.5001 31.9999 48.5001C32.5304 48.5001 33.0391 48.2894 33.4142 47.9143C33.7892 47.5393 33.9999 47.0305 33.9999 46.5001C33.9999 45.9697 33.7892 45.461 33.4142 45.0859C33.0391 44.7108 32.5304 44.5001 31.9999 44.5001C31.4695 44.5001 30.9608 44.7108 30.5857 45.0859C30.2107 45.461 29.9999 45.9697 29.9999 46.5001ZM25.1249 34.3126C25.1249 34.6501 25.3999 34.9063 25.7374 34.9063H27.7624C28.0999 34.9063 28.3749 34.6438 28.3749 34.3188C28.3749 32.5563 29.9874 31.0938 31.9999 31.0938C34.0124 31.0938 35.6249 32.5563 35.6249 34.3126C35.6249 35.8938 34.3124 37.2626 32.5437 37.4938C31.3374 37.6688 30.3874 38.7626 30.3749 40.0001V42.0001C30.3749 42.3439 30.6562 42.6251 30.9999 42.6251H32.9999C33.3437 42.6251 33.6249 42.3439 33.6249 42.0001V41.2376C33.6249 40.8626 33.8749 40.5188 34.2312 40.4063C37.0187 39.5063 38.9187 37.0313 38.8749 34.2251C38.8249 30.7563 35.7999 27.9251 32.0937 27.8751C28.2562 27.8313 25.1249 30.7251 25.1249 34.3126Z" fill="#1890FF"/>
</svg>
