<svg width="25" height="32" viewBox="0 0 25 32" fill="none" xmlns="http://www.w3.org/2000/svg">
<g opacity="0.95">
<mask id="path-1-outside-1_1659_6330" maskUnits="userSpaceOnUse" x="-0.00195312" y="4.87061" width="25" height="27" fill="black">
<rect fill="white" x="-0.00195312" y="4.87061" width="25" height="27"/>
<path fill-rule="evenodd" clip-rule="evenodd" d="M22.901 6.87061H1.99805V23.4085H2.25791L12.5212 28.8706L22.7845 23.4085H22.901V23.3465L22.9983 23.2947H22.901V6.87061Z"/>
</mask>
<path fill-rule="evenodd" clip-rule="evenodd" d="M22.901 6.87061H1.99805V23.4085H2.25791L12.5212 28.8706L22.7845 23.4085H22.901V23.3465L22.9983 23.2947H22.901V6.87061Z" fill="white"/>
<path d="M1.99805 6.87061V4.87061H-0.00195312V6.87061H1.99805ZM22.901 6.87061H24.901V4.87061H22.901V6.87061ZM1.99805 23.4085H-0.00195312V25.4085H1.99805V23.4085ZM2.25791 23.4085L3.19752 21.643L2.75697 21.4085H2.25791V23.4085ZM12.5212 28.8706L11.5816 30.6361L12.5212 31.1362L13.4608 30.6361L12.5212 28.8706ZM22.7845 23.4085V21.4085H22.2854L21.8449 21.643L22.7845 23.4085ZM22.901 23.4085V25.4085H24.901V23.4085H22.901ZM22.901 23.3465L21.9614 21.581L20.901 22.1454V23.3465H22.901ZM22.9983 23.2947L23.9379 25.0603L22.9983 21.2947V23.2947ZM22.901 23.2947H20.901V25.2947H22.901V23.2947ZM1.99805 8.87061H22.901V4.87061H1.99805V8.87061ZM3.99805 23.4085V6.87061H-0.00195312V23.4085H3.99805ZM2.25791 21.4085H1.99805V25.4085H2.25791V21.4085ZM13.4608 27.1051L3.19752 21.643L1.3183 25.1741L11.5816 30.6361L13.4608 27.1051ZM21.8449 21.643L11.5816 27.1051L13.4608 30.6361L23.7241 25.1741L21.8449 21.643ZM22.901 21.4085H22.7845V25.4085H22.901V21.4085ZM20.901 23.3465V23.4085H24.901V23.3465H20.901ZM22.0587 21.5292L21.9614 21.581L23.8406 25.1121L23.9379 25.0603L22.0587 21.5292ZM22.901 25.2947H22.9983V21.2947H22.901V25.2947ZM20.901 6.87061V23.2947H24.901V6.87061H20.901Z" fill="#4577EF" mask="url(#path-1-outside-1_1659_6330)"/>
<path fill-rule="evenodd" clip-rule="evenodd" d="M6.66878 22.3169L12.4985 25.578L18.3283 22.3169H20.6279L12.4985 26.8643L4.36914 22.3169H6.66878Z" fill="#4577EF"/>
<path d="M11.7061 12.0143L9.97046 11.762L9.19458 10.1891C9.17339 10.146 9.13852 10.1111 9.09546 10.0899C8.98745 10.0366 8.8562 10.0811 8.8022 10.1891L8.02632 11.762L6.29067 12.0143C6.24282 12.0211 6.19907 12.0437 6.16558 12.0778C6.12508 12.1195 6.10277 12.1755 6.10353 12.2335C6.1043 12.2916 6.12809 12.347 6.16968 12.3875L7.42544 13.6118L7.12876 15.3406C7.1218 15.3808 7.12625 15.4222 7.1416 15.46C7.15696 15.4978 7.1826 15.5306 7.21562 15.5546C7.24864 15.5786 7.28773 15.5928 7.32844 15.5957C7.36915 15.5986 7.40985 15.5901 7.44595 15.571L8.99839 14.7548L10.5508 15.571C10.5932 15.5936 10.6424 15.6011 10.6896 15.5929C10.8085 15.5724 10.8885 15.4596 10.868 15.3406L10.5713 13.6118L11.8271 12.3875C11.8613 12.354 11.8838 12.3103 11.8907 12.2624C11.9091 12.1428 11.8257 12.032 11.7061 12.0143Z" fill="#4577EF"/>
<path d="M18.7061 12.0143L16.9705 11.762L16.1946 10.1891C16.1734 10.146 16.1385 10.1111 16.0955 10.0899C15.9875 10.0366 15.8562 10.0811 15.8022 10.1891L15.0263 11.762L13.2907 12.0143C13.2428 12.0211 13.1991 12.0437 13.1656 12.0778C13.1251 12.1195 13.1028 12.1755 13.1035 12.2335C13.1043 12.2916 13.1281 12.347 13.1697 12.3875L14.4254 13.6118L14.1288 15.3406C14.1218 15.3808 14.1263 15.4222 14.1416 15.46C14.157 15.4978 14.1826 15.5306 14.2156 15.5546C14.2486 15.5786 14.2877 15.5928 14.3284 15.5957C14.3691 15.5986 14.4099 15.5901 14.4459 15.571L15.9984 14.7548L17.5508 15.571C17.5932 15.5936 17.6424 15.6011 17.6896 15.5929C17.8085 15.5724 17.8885 15.4596 17.868 15.3406L17.5713 13.6118L18.8271 12.3875C18.8613 12.354 18.8838 12.3103 18.8907 12.2624C18.9091 12.1428 18.8257 12.032 18.7061 12.0143Z" fill="#4577EF"/>
<g clip-path="url(#clip0_1659_6330)">
<path d="M15.2061 19.0143L13.4705 18.762L12.6946 17.1891C12.6734 17.146 12.6385 17.1111 12.5955 17.0899C12.4875 17.0366 12.3562 17.0811 12.3022 17.1891L11.5263 18.762L9.79067 19.0143C9.74282 19.0211 9.69907 19.0437 9.66558 19.0778C9.62508 19.1195 9.60277 19.1755 9.60353 19.2335C9.6043 19.2916 9.62809 19.347 9.66968 19.3875L10.9254 20.6118L10.6288 22.3406C10.6218 22.3808 10.6263 22.4222 10.6416 22.46C10.657 22.4978 10.6826 22.5306 10.7156 22.5546C10.7486 22.5786 10.7877 22.5928 10.8284 22.5957C10.8691 22.5986 10.9099 22.5901 10.9459 22.571L12.4984 21.7548L14.0508 22.571C14.0932 22.5936 14.1424 22.6011 14.1896 22.5929C14.3085 22.5724 14.3885 22.4596 14.368 22.3406L14.0713 20.6118L15.3271 19.3875C15.3613 19.354 15.3838 19.3103 15.3907 19.2624C15.4091 19.1428 15.3257 19.032 15.2061 19.0143Z" fill="#4577EF"/>
</g>
</g>
<defs>
<clipPath id="clip0_1659_6330">
<rect width="7" height="7" fill="white" transform="translate(8.99805 16.6006)"/>
</clipPath>
</defs>
</svg>
