<?xml version="1.0" encoding="utf-8"?>
<!-- Generator: Adobe Illustrator 25.2.3, SVG Export Plug-In . SVG Version: 6.00 Build 0)  -->
<svg version="1.1" id="Слой_1" xmlns="http://www.w3.org/2000/svg" xmlns:xlink="http://www.w3.org/1999/xlink" x="0px" y="0px"
	 viewBox="0 0 21 24" style="enable-background:new 0 0 21 24;" xml:space="preserve">
<style type="text/css">
	.st0{fill:#4577EF;}
</style>
<path class="st0" d="M0.8,22.8c-0.2-0.2-0.4-0.4-0.6-0.6C0.1,21.9,0,21.6,0,21.3c0-0.9,0-1.9,0-2.8C0,13,0,7.4,0,1.9
	c0-0.3,0-0.6,0.2-0.8c0.1-0.3,0.3-0.5,0.5-0.7l11.4,11.2C8.3,15.3,4.6,19.1,0.8,22.8z"/>
<path class="st0" d="M1.1,0.1C1.4,0,1.7,0,2,0c0.3,0,0.6,0.1,0.8,0.3l7.1,4l5.9,3.3l0.4,0.2l-3.6,3.5L1.1,0.1z"/>
<path class="st0" d="M1.2,23l11.3-11l3.5,3.4l-2,1.1L2.9,22.8C2.6,23,2.3,23.1,2,23.1S1.4,23.1,1.2,23L1.2,23z"/>
<path class="st0" d="M16.4,15.2l-3.7-3.6L15,9.3c0.4-0.4,0.8-0.8,1.2-1.2c0,0,0.1-0.1,0.1-0.1c0,0,0.1,0,0.1,0c0,0,0.1,0,0.1,0
	c0,0,0.1,0,0.1,0.1c1.1,0.6,2.2,1.2,3.3,1.9c0.3,0.2,0.5,0.4,0.7,0.7c0.2,0.3,0.3,0.6,0.3,0.9c0,0.3-0.1,0.6-0.3,0.9
	c-0.2,0.3-0.4,0.5-0.7,0.7l-0.1,0.1L16.4,15.2z"/>
</svg>
