<svg xmlns="http://www.w3.org/2000/svg" viewBox="0 0 192.2 192.1"><defs><style>.cls-1{fill:orange;}.cls-2{fill:#023e8a;}</style></defs><g id="Слой_2" data-name="Слой 2"><g id="Слой_1-2" data-name="Слой 1"><path class="cls-1" d="M123,36.7a84.68,84.68,0,0,1-3.8-25.3A72.85,72.85,0,0,1,120,0h14.5A124.81,124.81,0,0,1,123,36.7Z"/><path class="cls-2" d="M76,86.5A120.33,120.33,0,0,0,43.4,62.6,84.84,84.84,0,0,0,85.9,33.1,82,82,0,0,0,101.2.1H120a71.18,71.18,0,0,0-.8,11.4A84.68,84.68,0,0,0,123,36.8,118.81,118.81,0,0,1,99.1,69.4,125.6,125.6,0,0,1,76,86.5Z"/><path class="cls-1" d="M72.4,192H57.8a119.42,119.42,0,0,1,11.5-36.6,84.5,84.5,0,0,1,3.8,25.2A85.13,85.13,0,0,1,72.4,192Z"/><path class="cls-2" d="M91.1,192.1H72.3a85.13,85.13,0,0,0,.7-11.4,87.31,87.31,0,0,0-3.8-25.2,118.81,118.81,0,0,1,23.9-32.6,108.49,108.49,0,0,1,23.1-17.2,120.33,120.33,0,0,0,32.6,23.9,84.84,84.84,0,0,0-42.5,29.5,83.89,83.89,0,0,0-15.2,33Z"/><path class="cls-2" d="M192.1,134.4a122.2,122.2,0,0,1-36.6-11.5,84.68,84.68,0,0,1,25.3-3.8,72.85,72.85,0,0,1,11.4.8v14.5Z"/><path class="cls-1" d="M155.5,122.9A120.33,120.33,0,0,1,122.9,99a111.06,111.06,0,0,1-17.2-23.1,120.33,120.33,0,0,0,23.9-32.6,85.64,85.64,0,0,0,29.6,42.5,83.32,83.32,0,0,0,33,15.3v18.8a71.18,71.18,0,0,0-11.4-.8,83.71,83.71,0,0,0-25.3,3.8Z"/><path class="cls-1" d="M62.6,148.8a84.84,84.84,0,0,0-29.5-42.5A82,82,0,0,0,.1,91V72.2a85.13,85.13,0,0,0,11.4.7,84,84,0,0,0,25.2-3.8A118.81,118.81,0,0,1,69.3,93a113.76,113.76,0,0,1,17.2,23.1,122.37,122.37,0,0,0-23.9,32.7Z"/><path class="cls-2" d="M11.4,73A87.22,87.22,0,0,1,0,72.3V57.7A122.2,122.2,0,0,1,36.6,69.2,83.54,83.54,0,0,1,11.4,73Z"/></g></g></svg>