<svg id="Слой_1" data-name="Слой 1" xmlns="http://www.w3.org/2000/svg" viewBox="0 0 115 25"><defs><style>.cls-1{fill:#023e8a;}.cls-2{fill:orange;}</style></defs><path class="cls-1" d="M8.75,7a0,0,0,0,1,0,0V1.75a0,0,0,0,0,0,0H3.86a0,0,0,0,0,0,0V7s0,0,0,0H.89l0,0v3.17l0,0h2.9s0,0,0,0V20.57a4.57,4.57,0,0,0,.44,2.14A3.24,3.24,0,0,0,5.48,24a5,5,0,0,0,1.79.58,13.86,13.86,0,0,0,2.18.17l1.48,0a12.77,12.77,0,0,0,1.35-.14,0,0,0,0,0,0,0V20.84s0,0,0,0l-.69.1c-.25,0-.51,0-.79,0a2.4,2.4,0,0,1-1.65-.41,2.3,2.3,0,0,1-.42-1.63V10.24a0,0,0,0,1,0,0h3.52a0,0,0,0,0,0,0V7a0,0,0,0,0,0,0Z"/><path class="cls-1" d="M19.64,4.26a0,0,0,0,0,0,0V.32a0,0,0,0,0,0,0H14.81s0,0,0,0V4.23s0,0,0,0ZM14.81,7a0,0,0,0,0,0,0v17.5a0,0,0,0,0,0,0h4.83a0,0,0,0,0,0,0V7a0,0,0,0,0,0,0Z"/><path class="cls-1" d="M23.69,7a0,0,0,0,0,0,0v17.5a0,0,0,0,0,0,0h4.84l0,0V14.35a4.67,4.67,0,0,1,.38-2.07,3.3,3.3,0,0,1,.89-1.22,2.83,2.83,0,0,1,1.11-.58,3.69,3.69,0,0,1,.93-.17,3.13,3.13,0,0,1,1.76.41,2,2,0,0,1,.86,1,4.28,4.28,0,0,1,.31,1.42q0,.75,0,1.53v9.82l0,0H39.7l0,0V14.76a12,12,0,0,1,.1-1.6,4.25,4.25,0,0,1,.48-1.42,3,3,0,0,1,1-1,3.85,3.85,0,0,1,3.31-.07,2.17,2.17,0,0,1,.93.92,3.28,3.28,0,0,1,.38,1.35c0,.53.07,1.08.07,1.67v9.92l0,0h4.84a0,0,0,0,0,0,0V12.79a7.53,7.53,0,0,0-.49-2.89,5,5,0,0,0-1.34-2A5.12,5.12,0,0,0,47,6.85a9.49,9.49,0,0,0-2.62-.34,5.87,5.87,0,0,0-3.24.88,7.58,7.58,0,0,0-2.1,2s0,0-.06,0a4.29,4.29,0,0,0-2.11-2.22,7.18,7.18,0,0,0-3.07-.64,6.47,6.47,0,0,0-3.14.74,7.13,7.13,0,0,0-2.3,2.09l0,0h0l0,0V7a0,0,0,0,0,0,0Z"/><path class="cls-1" d="M59.77,4.26a0,0,0,0,0,0,0V.32a0,0,0,0,0,0,0H54.94a0,0,0,0,0,0,0V4.23a0,0,0,0,0,0,0ZM54.94,7a0,0,0,0,0,0,0v17.5a0,0,0,0,0,0,0h4.83a0,0,0,0,0,0,0V7a0,0,0,0,0,0,0Z"/><path class="cls-1" d="M68.19,15.28a0,0,0,0,1,0,0l-6.36,9.17s0,.05,0,.05h5.42L71,19s0,0,.06,0l3.68,5.49h5.54a0,0,0,0,0,0-.05l-6.53-9.27a0,0,0,0,1,0,0L79.55,7a0,0,0,0,0,0,0H74.19l0,0-3.07,4.53a0,0,0,0,1,0,0L67.94,7H62.41a0,0,0,0,0,0,0Z"/><path class="cls-2" d="M82.2.29a0,0,0,0,0,0,0V24.51a0,0,0,0,0,0,0H87l0,0V15.34A6.42,6.42,0,0,1,88,11.5a3.42,3.42,0,0,1,2.9-1.19,2.67,2.67,0,0,1,2.45,1.09A6,6,0,0,1,94,14.62v9.89a0,0,0,0,0,0,0h4.83a0,0,0,0,0,0,0V13.74a12.87,12.87,0,0,0-.31-3,5.19,5.19,0,0,0-1-2.27,4.6,4.6,0,0,0-2-1.46,8,8,0,0,0-3.2-.54,6.33,6.33,0,0,0-2.83.71,5.52,5.52,0,0,0-2.37,2.19l0,0H87.1s0,0,0,0V.32a0,0,0,0,0,0,0Z"/><path class="cls-2" d="M102.64,7a0,0,0,0,0,0,0v17.5a0,0,0,0,0,0,0h4.83a0,0,0,0,0,0,0V16.63a9.06,9.06,0,0,1,.25-2.21,4.77,4.77,0,0,1,.79-1.77,3.9,3.9,0,0,1,1.52-1.22,5.31,5.31,0,0,1,2.27-.44,6,6,0,0,1,.93.07,7,7,0,0,1,.79.09s0,0,0,0V6.7s0,0,0,0a3.89,3.89,0,0,0-1-.16,5.92,5.92,0,0,0-1.79.27,6.06,6.06,0,0,0-1.62.78,5.45,5.45,0,0,0-1.35,1.19,5.76,5.76,0,0,0-.92,1.47l0,0h0a0,0,0,0,1,0,0V7a0,0,0,0,0,0,0Z"/></svg>